# xmcd
#
# Track frame offsets: 
#        150
#        13445
#        26537
#        40650
#        52805
#        65075
#        78780
#        93267
#        107382
#        122170
#        135135
#        148422
#        161145
#        187722
#        199855
#        212112
#        226005
#        238877
#        255450
#        268125
#        283610
#        297480
#        314547
#
# Disc length: 4374 seconds
#
# Revision: 3
# Processed by: cddbd v1.5.2PL0 Copyright (c) Steve Scherf et al.
# Submitted via: ExactAudioCopy v1.1
#
DISCID=4a111417
DTITLE=Dexter Gordon - Settin' The Pace
DYEAR=1998
DGENRE=Jazz
TTITLE0=Blow Mr. Dexter (mono)
TTITLE1=Dexter's Deck (mono)
TTITLE2=Dexter's Cuttin' Out (mono)
TTITLE3=Dexter's Minor Mad (mono)
TTITLE4=Long Tall Dexter (alt - take 1) (mono)
TTITLE5=Long Tall Dexter (master - take 2) (mono)
TTITLE6=Dexter Rides Again (mono)
TTITLE7=I Can't Escape from You (alt - take 3) (mono)
TTITLE8=I can't Escape from You (master - take 7) (mono)
TTITLE9=Dexter Digs In (alt - take 1) (mono)
TTITLE10=Dexter Digs In (master - take 2) (mono)
TTITLE11=Dexter Digs In (alt - take 4) (mono)
TTITLE12=Settin' the Pace (Parts 1 and 2) (mono)
TTITLE13=So Easy (mono)
TTITLE14=Dexter's Riff (mono)
TTITLE15=Dexter's Mood (alt - take 1) (mono)
TTITLE16=Dexter's Mood (master - take 2) (mono)
TTITLE17=Dextrose (alt - take 1) (mono)
TTITLE18=Dextrose (master - take 2) (mono)
TTITLE19=Index (alt - take 1) (mono)
TTITLE20=Index (master - take 2) (mono)
TTITLE21=Dextivity (alt - take 1) (mono)
TTITLE22=Dextivity (master - take 2) (mono)
EXTD=YEAR: 1998
EXTT0=
EXTT1=
EXTT2=
EXTT3=
EXTT4=
EXTT5=
EXTT6=
EXTT7=
EXTT8=
EXTT9=
EXTT10=
EXTT11=
EXTT12=
EXTT13=
EXTT14=
EXTT15=
EXTT16=
EXTT17=
EXTT18=
EXTT19=
EXTT20=
EXTT21=
EXTT22=
PLAYORDER=
